# xmcd
#
# Track frame offsets: 
#        150
#        15449
#        42551
#        66693
#        94355
#        124104
#        144330
#        163487
#        188337
#        214182
#        237184
#
# Disc length: 3566 seconds
#
# Revision: 0
# Processed by: cddbd v1.5.2PL0 Copyright (c) Steve Scherf et al.
# Submitted via: ExactAudioCopyFreeDBPlugin 1.0
#
DISCID=a00dec0b
DTITLE=London Elektricity - Yikes!
DYEAR=2011
DGENRE=Drum and Bass
TTITLE0=Elektricity Will Keep Me Warm
TTITLE1=Meteorites
TTITLE2=Had A Little Fight
TTITLE3=The Plan That Cannot Fail
TTITLE4=Yikes!
TTITLE5=Fault Lines
TTITLE6=U Gotta B Crazy
TTITLE7=Round The World In A Day
TTITLE8=Love The Silence
TTITLE9=Flesh Music
TTITLE10=Invisible Worlds
EXTD=
EXTT0=
EXTT1=
EXTT2=
EXTT3=
EXTT4=
EXTT5=
EXTT6=
EXTT7=
EXTT8=
EXTT9=
EXTT10=
PLAYORDER=
